<?xml version="1.0" encoding="utf-8"?>
<!-- Generator: Adobe Illustrator 25.3.1, SVG Export Plug-In . SVG Version: 6.00 Build 0)  -->
<svg version="1.1"
	 id="svg3272" inkscape:output_extension="org.inkscape.output.svg.inkscape" inkscape:version="0.45+0.46pre0+devel" sodipodi:docbase="F:\Clipart\vector\rockraikar" sodipodi:docname="orange mushroom.svg" sodipodi:version="0.32" xmlns:cc="http://creativecommons.org/ns#" xmlns:dc="http://purl.org/dc/elements/1.1/" xmlns:inkscape="http://www.inkscape.org/namespaces/inkscape" xmlns:ns1="http://sozi.baierouge.fr" xmlns:rdf="http://www.w3.org/1999/02/22-rdf-syntax-ns#" xmlns:sodipodi="http://sodipodi.sourceforge.net/DTD/sodipodi-0.dtd" xmlns:svg="http://www.w3.org/2000/svg"
	 xmlns="http://www.w3.org/2000/svg" xmlns:xlink="http://www.w3.org/1999/xlink" x="0px" y="0px" viewBox="0 0 304.5 309.8"
	 style="enable-background:new 0 0 304.5 309.8;" xml:space="preserve">
<style type="text/css">
	.st0{fill:#052865;}
	.st1{fill-rule:evenodd;clip-rule:evenodd;fill:url(#path3246_1_);}
	.st2{fill-rule:evenodd;clip-rule:evenodd;fill:url(#path3316_1_);}
	.st3{fill:url(#path3248_1_);}
	.st4{fill:url(#path5241_1_);}
	.st5{fill-rule:evenodd;clip-rule:evenodd;fill:url(#path5306_1_);}
	.st6{fill-rule:evenodd;clip-rule:evenodd;fill:url(#path4289_1_);}
	.st7{fill:url(#path5310_1_);}
	.st8{fill:url(#path5312_1_);}
</style>
<sodipodi:namedview  bordercolor="#666666" borderopacity="1.0" gridtolerance="10000" guidetolerance="10" id="base" inkscape:current-layer="layer1" inkscape:cx="271.24786" inkscape:cy="118.76196" inkscape:document-units="px" inkscape:pageopacity="0.0" inkscape:pageshadow="2" inkscape:window-height="744" inkscape:window-width="1280" inkscape:window-x="0" inkscape:window-y="22" inkscape:zoom="1.4" objecttolerance="10" pagecolor="#ffffff" showgrid="false">
	<inkscape:grid  id="grid2508" type="xygrid"></inkscape:grid>
</sodipodi:namedview>
<g id="layer1" transform="translate(-174.69 -385.86)" inkscape:groupmode="layer" inkscape:label="Layer 1">
	<g id="g5287" transform="matrix(1.3022 0 0 1.3022 -12.311 -124.79)">
		<path id="path3244" sodipodi:nodetypes="cccccscccccccc" class="st0" d="M253.2,394.5c-8.4,0.3-14.8,3.7-20.7,6.3
			c-23.5,11.9-41.7,26.1-58.4,40.4c-11.9,10.9-24.1,22-29.2,34.2c-2.1,3.8,0.4,14.1,3.9,18.2c1.6,4.3,6.2,4.2,9,6.9
			c2.3,2.3,17.1,0,20.9,0c11.5-1.3,23-1.5,34.6-1.5c28.3,5.5,45,0.3,67.9,0h8.2c62.1-4.5,86.2-7.8,53.6-43.8
			c-16.2-17.4-35.7-34.1-60-49.1c-8-4.4-16-9.8-28.1-11.5C254.3,394.5,253.7,394.5,253.2,394.5L253.2,394.5z"/>
		
			<linearGradient id="path3246_1_" gradientUnits="userSpaceOnUse" x1="401.4845" y1="275.984" x2="420.5445" y2="275.984" gradientTransform="matrix(2.0016 0 0 -2.0016 -560.946 1098.1567)">
			<stop  offset="0" style="stop-color:#63009E"/>
			<stop  offset="1" style="stop-color:#9B81FF"/>
		</linearGradient>
		<path id="path3246" sodipodi:nodetypes="cccccc" class="st1" d="M256.7,466.2c-6.2-1.4-12.3,3.4-10.7,10
			c3.9,47.7,5.6,96.1-3.4,143.2c0,7.5,29.4,8.6,30.2,0.1c11.6-45.2,7.5-67-12.2-137C258.7,478.5,263.4,464.3,256.7,466.2
			L256.7,466.2z"/>
		
			<linearGradient id="path3316_1_" gradientUnits="userSpaceOnUse" x1="401.7665" y1="319.9742" x2="410.8166" y2="251.1042" gradientTransform="matrix(2.0016 0 0 -2.0016 -560.946 1098.1567)">
			<stop  offset="0" style="stop-color:#391861"/>
			<stop  offset="1" style="stop-color:#F9F8FF;stop-opacity:0"/>
		</linearGradient>
		<path id="path3316" sodipodi:nodetypes="cccccc" class="st2" d="M256.7,466.2c-6.2-1.4-12.3,3.4-10.7,10
			c3.9,47.7,5.6,96.1-3.4,143.2c0,7.5,29.4,8.6,30.2,0.1c11.6-45.2,7.5-67-12.2-137C258.7,478.5,263.4,464.3,256.7,466.2
			L256.7,466.2z"/>
		
			<linearGradient id="path3248_1_" gradientUnits="userSpaceOnUse" x1="411.8191" y1="283.3987" x2="395.5891" y2="349.0587" gradientTransform="matrix(2.0016 0 0 -2.0016 -560.946 1098.1567)">
			<stop  offset="0" style="stop-color:#025ED4"/>
			<stop  offset="1" style="stop-color:#AF53FE"/>
		</linearGradient>
		<path id="path3248" sodipodi:nodetypes="ccccccccccccccc" class="st3" d="M355.7,482.1c-6.3,2.9-5.8,14.5-23.6,4.4
			c-15.9,2.3-30.5,6.2-45.5,9.5c-11.3,2.4-22.2-1.5-31.7-4c-8.2-2.8-22.6,1.2-32.1,2.7c-15.8,1.9-25.3,2.7-41.7,3.5
			c-15.3-0.1-25.9,0.7-32.2-5.2c-3.9-3.4-6.9-14.9-4.6-18.9c5.1-12.2,17.3-23.3,29.2-34.2c16.7-14.3,34.8-28.5,58.4-40.4
			c6.3-2.8,13.2-6.5,22.4-6.4c12.1,1.8,20,7.1,28,11.5c24.3,15,43.9,31.8,60,49.1c6.8,8,14.4,16.1,15,24.9
			C357.3,479.8,357,481.1,355.7,482.1z"/>
		
			<linearGradient id="path5241_1_" gradientUnits="userSpaceOnUse" x1="345.0858" y1="237.8836" x2="346.5058" y2="344.0536" gradientTransform="matrix(1.3022 0 0 -1.2978 -199.0686 806.6327)">
			<stop  offset="0" style="stop-color:#7000FF"/>
			<stop  offset="1" style="stop-color:#F9F8FF;stop-opacity:0"/>
		</linearGradient>
		<path id="path5241" class="st4" d="M248,392.9c-22.3,6.6-40.4,22.1-57.9,36.5c-16.6,15.7-36.4,31.1-43.8,53.2
			c-1.3,6.5,2.2,11.6,8.2,14.7c-2.7-8.3-3-17.3,3.1-24.3c8.9-13.4,20.8-24.6,32.7-35.4c-11.9,13.9-26.5,28.1-30.1,46.3
			c0.4,5.9-0.2,16.3,8.8,13.6c-4-9.1-2.7-18.9,3.2-26.9c11-17.4,25.6-32.6,40.7-46.7c-14,18.2-30.4,37-34.8,59.7
			c0.2,4.6-0.3,11.8,3.4,14.1c8.6,2.1,2.1-6.8,2.9-11.4c1.1-16.6,13.1-30.3,22-43.9c5.8-7.8,11.8-15.5,18.5-22.7
			c-12.1,20.1-25.2,40.8-28.6,64.1c0.6,4-0.7,12.4,2.8,13.2c8.5-0.8,1.4-10.4,3.9-16c5.4-22.8,18-43.9,31-63.5
			c-8.9,22.7-19.3,46-19.8,70.6c-2.3,6.9,6.8,10,6.5,2.6c-1.1-21,8-40.8,14.6-60.3c-4.7,20.5-10.6,41.3-9.4,62.4
			c8.6,2.6,5.8-5.1,6.1-10.3c1.4-18.4,5.9-36.7,10.4-54.7c-2.2,20.9-5.1,41.9-4.6,62.9c9.7,3,5.2-7.3,6.4-12.8
			c0.5-11.1,1.6-22.2,2.8-33.3c-0.2,15.2-0.6,30.4-0.3,45.6c11.2,2.5,4.4-12.3,6.3-18.8c0.2-14.6,0.2-32.5,0.7-45
			c1.9,21.8,5.8,43.9,4.2,65.7c6.5,4.3,7.1-1.2,6.9-6.4c-0.2-19.4-2.9-41.3-4.6-58.9c4.5,20.3,10.5,41,10,62
			c-3.2,5.2,1.2,9.9,5.2,5.4c4-17.4-2.6-35.2-5.2-52.4c-0.5-3-3.5-14.1-2.4-11.5c6.1,18.8,14.4,37.9,14,57.8
			c-1.5,3.8-4.9,12.6,2.5,7.9c6-5,4-15.3,2.7-22.6c-4.2-19.8-10.5-39.2-18.5-57.9c13.5,20.7,26.1,43.1,31.1,67.1
			c2.4,4.3-6.2,13.1,2.3,9.4c7.4-1.8,3.3-11.9,2.6-17.2c-6.1-20.2-15.9-39.2-27-57.1c16.4,19.3,32.8,40.3,40.2,64.3
			c-2.7,7.9,8.6,7.6,6.4,0.5c-4.7-21.5-19.3-39.7-32.1-57.3c-7.2-8.3,4.9,4,7.3,6.3c13.8,15.6,29.8,31.5,36.3,51.5
			c-1.9,5.3,8,9.9,6.7,2.9c-2.1-18.7-17.1-33.1-28.3-47.6c-7.4-8.1,5,4.1,7.1,6.3c11.6,12.9,25.8,25.7,29.8,43.1
			c6.5-3.9,4.3-9.9,1.2-15c-19.5-29.5-47.1-54.3-77.6-73.2C266.7,395.1,256.1,390.3,248,392.9L248,392.9z"/>
	</g>
	<g id="g5335" transform="matrix(.91922 0 0 .91922 97.479 6.9348)">
		<g id="g6317" transform="matrix(.58698 0 0 .58698 11.763 381.56)">
			<path id="path5304" sodipodi:nodetypes="ccccccccccccc" class="st0" d="M549.9,342.4c-10.9,0.4-19.2,5-27,8.4
				c-30.6,15.9-54.3,34.7-76,53.8c-15.5,14.5-31.5,29.2-38.1,45.4c-2.8,5,0.5,18.8,5.1,24.2c7.3,6.8,28.8,9.4,39,9.2
				c15-1.8,30-2,45-2c36.9,7.4,43.2-1.4,73.1-1.8c3.5,0,16-2.1,19.6-2.1c98.7,1.1,117.3,0,76.2-54.4c-21.1-23.1-46.5-45.4-78.2-65.4
				c-10.5-5.9-20.8-13-36.5-15.3C551.4,342.4,550.6,342.4,549.9,342.4z"/>
			
				<linearGradient id="path5306_1_" gradientUnits="userSpaceOnUse" x1="681.5286" y1="-183.6148" x2="701.9286" y2="-188.1348" gradientTransform="matrix(1.0796 3.078859e-02 3.078859e-02 -1.0796 -210.6062 292.8298)">
				<stop  offset="0" style="stop-color:#63009E"/>
				<stop  offset="1" style="stop-color:#9B81FF"/>
			</linearGradient>
			<path id="path5306" sodipodi:nodetypes="cccccc" class="st5" d="M562.4,413.6c-8-2.1-16.1,4-14.2,12.6
				c-33.9,108.4-38.8,156.6-39.9,189.1c-0.3,9.8,46.6,10.3,48.1-0.7c-3.3-36.7,3.1-7.3,10.6-179.7
				C564.5,429.6,571.2,411.4,562.4,413.6z"/>
			
				<linearGradient id="path4289_1_" gradientUnits="userSpaceOnUse" x1="720.455" y1="-90.6333" x2="711.395" y2="-155.9533" gradientTransform="matrix(1.0796 3.078859e-02 3.078859e-02 -1.0796 -210.6062 296.5399)">
				<stop  offset="0" style="stop-color:#391861"/>
				<stop  offset="1" style="stop-color:#F9F8FF;stop-opacity:0"/>
			</linearGradient>
			<path id="path4289" sodipodi:nodetypes="cccccc" class="st6" d="M562.4,417.3c-8-2-16.1,4-14.2,12.6
				c-33.9,108.4-38.8,156.6-39.9,189.1c-0.3,9.8,46.6,10.3,48.1-0.7c-3.3-36.7,3.1-7.3,10.6-179.6
				C564.5,433.3,571.2,415.1,562.4,417.3L562.4,417.3z"/>
			
				<linearGradient id="path5310_1_" gradientUnits="userSpaceOnUse" x1="729.2935" y1="-166.7488" x2="713.0635" y2="-101.0888" gradientTransform="matrix(1.08 0 0 -1.08 -224.4637 339.8925)">
				<stop  offset="0" style="stop-color:#025ED4"/>
				<stop  offset="1" style="stop-color:#AF53FE"/>
			</linearGradient>
			<path id="path5310" sodipodi:nodetypes="cccccccccccccc" class="st7" d="M654.1,471.8c-47.5,2.2-34-10.6-53.5-6.2
				c-14.7,3.1-20.3,14.5-32.7,11.2c-10.6-3.6-26.9,8.3-39.3,10.3c-20.5,2.5-50.4-11.8-71.8-10.8c-20-0.2-34.5,2-42.6-5.8
				c-5.1-4.5-9-19.4-6-24.6c6.6-15.9,22.5-30.3,38.1-44.5c21.7-18.6,45.4-37,76-52.6c8.2-3.6,17.2-8.5,29.2-8.3
				c15.8,2.3,26,9.3,36.5,15c31.7,19.5,57.1,41.4,78.2,64c8.8,10.4,18.8,21,19.5,32.4C690.4,468,686.8,479.9,654.1,471.8
				L654.1,471.8z"/>
			
				<linearGradient id="path5312_1_" gradientUnits="userSpaceOnUse" x1="547.1579" y1="-262.4304" x2="547.4779" y2="-159.9303" gradientTransform="matrix(0.7026 0 0 -0.6931 162.426 301.2787)">
				<stop  offset="0" style="stop-color:#7000FF"/>
				<stop  offset="1" style="stop-color:#F9F8FF;stop-opacity:0"/>
			</linearGradient>
			<path id="path5312" sodipodi:nodetypes="cccccccccccccccccccccccccccccccccccccccccccccccccccccccc" class="st8" d="M543.2,340.2
				c-29,8.5-52.7,28.5-75.5,47c-21.6,20.3-47.5,40.1-57,68.5c-1.7,8.4,2.6,13.2,10.3,17.2c-3.5-10.8-3.5-20.5,4.4-29.6
				c11.6-17.3,27.1-31.7,42.5-45.6c-15.6,17.9-34.5,36.2-39.2,59.7c0.5,7.6-0.3,21.1,11.4,17.6c-5.3-11.7-3.5-24.4,4.2-34.7
				c14.3-22.4,33.4-42.1,53-60.2c-18.3,23.5-39.5,47.7-45.4,76.9c0.3,6-0.4,15.3,4.4,18.1c11.2,2.8,2.7-8.8,3.8-14.6
				c1.4-21.4,17.1-39,28.6-56.6c7.5-10.1,15.4-20,24-29.2c-15.8,25.9-32.7,52.6-37.2,82.7c0.7,5.1-2.7,20.3,1.8,21.3
				c11.1-1,3.6-17.7,6.9-24.9c7-29.4,23.4-56.5,40.4-81.9c-11.6,29.3-31.6,74.1-32.2,105.9c-2,5.7,8.5,0.5,8.1-9
				c-1.4-27,17.1-55.1,25.8-80.2c-6.1,26.4-16.5,67-14.9,94.2c4.6,4,6.4,7.3,10.6-27.1c1.8-23.8,7.7-47.3,13.6-70.5
				c-2.8,27-6.7,54-6.1,81.1c-3.9,25.9,7.9,29.5,8.3-16.5c0.6-14.4,2.1-28.7,3.6-43c-0.3,19.6-0.8,39.2-0.4,58.8
				c-4.9,37.1,7.5,0.5,8.2-24.3c0.3-18.8,0.3-41.8,0.9-58c2.4,28.1,6.6,56.6,4.4,84.6c4.4,17,10.3-1.6,10-8.3
				c-0.3-25-3.8-53.2-6-75.9c5.9,26.1,13.7,52.8,13,79.9c-3,6,7.6,18.7,6.8,7c5.2-22.4-3.4-45.4-6.8-67.6
				c-0.6-3.9-4.6-18.2-3.1-14.8c7.9,24.3,18.8,48.9,18.2,74.5c-1.7,15.8,9.2-4.8,6.8-19c-5.5-25.5-13.7-50.5-24.1-74.6
				c17.5,26.6,34,55.6,40.5,86.5c4.5,18.1,10.6,11.9,6.4-10c-7.9-26-20.7-50.5-35.2-73.6c21.3,24.9,42.7,52,52.4,82.8
				c0.6,19.7,15.5,22.1,8.3,0.7c-6.2-27.7-25.1-51.2-41.9-73.9c-9.4-10.6,6.4,5.2,9.5,8.1c17.9,20.1,38.8,40.6,47.3,66.4
				c2.8,17.1,12.6,24.5,8.7,3.8c-2.7-24.1-22.3-42.7-36.9-61.3c-9.6-10.5,6.5,5.4,9.3,8.2c15.2,16.6,35.4,41.6,40.6,64.1
				c8.4-5.1,3.9-21.2-0.2-27.8c-25.3-38-61.3-70-101-94.3C567.5,343.1,553.7,336.9,543.2,340.2L543.2,340.2z"/>
		</g>
	</g>
</g>
</svg>
